<?xml version="1.0" encoding="iso-8859-1"?>
<!-- Generator: Adobe Illustrator 16.0.0, SVG Export Plug-In . SVG Version: 6.00 Build 0)  -->
<!DOCTYPE svg PUBLIC "-//W3C//DTD SVG 1.1//EN" "http://www.w3.org/Graphics/SVG/1.1/DTD/svg11.dtd">
<svg xmlns="http://www.w3.org/2000/svg" xmlns:xlink="http://www.w3.org/1999/xlink" version="1.1" id="Capa_1" x="0px" y="0px" width="512px" height="512px" viewBox="0 0 94 94" style="enable-background:new 0 0 94 94;" xml:space="preserve">
<g>
	<g>
		<path d="M40.115,60.141c0.654-0.373,1.296-0.158,1.935-0.154c-0.353-0.206-0.745-0.27-1.134-0.346    C40.425,59.545,40.362,59.581,40.115,60.141z" fill="#45cdff"/>
		<path d="M45.909,51.411l-0.279,0.104c-1.009,0.469-1.941,1.105-2.841,1.945c-0.716,0.672-1.39,1.412-2.041,2.13l-0.413,0.453    c-0.198,0.392-0.565,0.537-0.899,0.628c-0.399,0.107-0.81,0.16-1.263,0.16c-0.292,0-0.6-0.021-0.932-0.064    c-1.294-0.175-2.226-0.496-3.025-1.043c-0.349-0.24-0.578-0.55-0.705-0.941c-0.385-1.206-0.778-2.375-1.358-3.467    c-0.446-0.836-0.938-1.705-1.62-2.418c0.013,0.062,0.032,0.123,0.046,0.185c0.575,2.329,1.182,4.649,1.704,6.991    c0.148,0.662,0.477,0.953,1.081,1.105c1.068,0.275,2.158,0.323,3.25,0.372c1.284,0.062,2.556,0.187,3.784,0.58    c0.341,0.109,0.519,0.041,0.727-0.245c1.537-2.104,3.092-4.197,4.638-6.296C45.808,51.531,45.868,51.477,45.909,51.411z" fill="#45cdff"/>
		<path d="M35.041,67.396c1.294,0.289,2.57,0.646,3.69,1.391c0.279,0.189,0.564,0.395,0.714,0.704l3.151-4.413L42.25,64.27    c-2.394-2.761-7.483-3.047-8.897-2.062c1.142-0.062,2.243-0.021,3.386,0.529c-1.268,0.07-2.404,0.203-3.459,0.73    c1.029,0.045,2.078-0.081,3.104,0.521c-1.172,0.146-2.291,0.14-3.404,0.695c0.629,0.1,1.125-0.086,1.62-0.021    c1.079,0.143,1.077,0.154,1.395,0.411c-1.066,0.139-2.119,0.239-3.133,0.823c0.535,0.082,0.991-0.006,1.438,0.086    c0.449,0.09,0.912,0.125,1.387,0.322c-1.072,0.192-2.129,0.188-3.07,0.703C33.436,67.104,34.244,67.219,35.041,67.396z" fill="#45cdff"/>
		<path d="M29.012,47.146c-1.167-0.837-2.221-1.804-3.226-2.826c-1.014-1.034-1.91-2.165-2.79-3.308    c-0.019,0.019-0.039,0.034-0.06,0.048c0.03,0.102,0.055,0.208,0.092,0.311c1.598,4.593,3.197,9.188,4.795,13.784    c0.661,1.896,1.32,3.793,1.978,5.688c0.064,0.188,0.14,0.351,0.14,0.351s1.708-0.397,3.087-0.243c0,0-0.009-0.058-0.075-0.308    c-0.115-0.444-0.224-0.889-0.326-1.336c-0.042-0.192-0.142-0.299-0.337-0.343c-0.515-0.114-1.009-0.296-1.493-0.503    c-0.613-0.265-1.218-0.55-1.794-1.018c0.617-0.062,1.16-0.135,1.705-0.16c0.303-0.016,0.335-0.15,0.338-0.404    c0.003-0.413-0.134-0.804-0.178-1.23c0.367,0.125,0.615,0.388,0.964,0.554c-0.015-0.104-0.02-0.172-0.035-0.231    c-0.604-2.447-1.233-4.887-1.796-7.342C29.851,47.975,29.54,47.523,29.012,47.146z" fill="#45cdff"/>
		<path d="M89,0H5C2.239,0,0,2.238,0,5v84c0,2.762,2.239,5,5,5h84c2.762,0,5-2.238,5-5V5C94,2.238,91.762,0,89,0z M85.134,54.736    c-0.174,0.314-0.11,0.672-0.146,1.005C84.04,65.167,80.15,73.177,73.34,79.734c-5.359,5.162-11.75,8.418-19.049,9.867    c-3.422,0.68-6.887,0.866-10.359,0.566C34.9,89.384,27.076,85.872,20.53,79.591c-5.098-4.896-8.545-10.784-10.386-17.61    c-0.645-2.391-1.041-4.819-1.197-7.289c-0.004-0.073,0.033-0.168-0.08-0.2c0-1.569,0-3.136,0-4.703    c0.113-0.032,0.076-0.128,0.08-0.2c0.081-1.418,0.253-2.822,0.508-4.217c1.223-6.661,3.994-12.608,8.375-17.773    c0.629-0.74,0.944-1.476,1.025-2.434c0.298-3.515,1.376-6.794,3.186-9.823c1.631-2.732,3.73-5.041,6.35-6.864    c0.003-0.005,0.005-0.005,0.01-0.007c0.936-0.772,2.475-1.733,4.438-2.587c0.01-0.006,2.591-1.15,4.983-1.612    c0.752-0.165,1.533-0.299,2.336-0.397c0.008-0.003,0.018-0.004,0.026-0.009c0.022,0,0.04,0,0.062,0    c2.103-0.252,4.353-0.249,6.66,0.157c7.182,1.259,13.07,6.023,17.507,14.158l0.021-0.006c0.004,0.009,0.006,0.02,0.01,0.03    c3.843,1.987,7.273,4.528,10.236,7.686c5.992,6.383,9.438,13.928,10.311,22.647c0.035,0.359-0.03,0.743,0.145,1.086    C85.134,51.328,85.134,53.031,85.134,54.736z" fill="#45cdff"/>
		<path d="M45.042,61.152c-0.378,0.447-0.521,0.496-0.986,0.224c-0.224-0.135-0.31-0.044-0.405,0.125    c-0.077,0.136,0.068,0.812,0.189,0.901c0.069,0.053,0.125,0.016,0.185-0.012c0.741-0.308,1.48-0.615,2.258-0.938    c-0.154-0.142-0.271-0.253-0.392-0.359C45.433,60.688,45.433,60.688,45.042,61.152z" fill="#45cdff"/>
		<path d="M47.98,5.965c-1.739-0.025-3.435,0.166-5.046,0.872c1.745-0.101,3.41,0.156,4.96,0.986    c-1.11-0.08-2.215-0.063-3.309,0.104c-1.09,0.168-2.163,0.409-3.18,1.026c1.283-0.078,2.493-0.144,3.697,0.094    c1.181,0.234,2.306,0.611,3.366,1.19c-0.797-0.02-1.576,0.086-2.358,0.116c-1.444,0.055-2.878,0.184-4.276,0.576    c-0.535,0.149-1.072,0.312-1.627,0.746c2.886-0.216,5.414,0.455,7.759,2.027c-2.997-0.078-5.923-0.229-8.697,0.98    c2.967-0.151,5.799,0.22,8.318,1.96c-2.998-0.229-5.92,0.119-8.785,0.99c1.416-0.035,2.805,0.102,4.16,0.516    c1.343,0.409,2.595,1.027,3.911,1.746c-3.082-0.169-6.01-0.018-8.806,1.094c2.752-0.064,5.216,0.847,7.588,2.134    c-1.007,0.165-2.005,0.273-3.004,0.369c-1.249,0.118-2.498,0.224-3.703,0.598c-0.475,0.146-0.952,0.31-1.431,0.614    c3.004,0.197,6.223,0.964,6.791,1.6c-2.439,0.368-4.908,0.662-7.007,2.38c1.205,0.005,2.308-0.036,3.405,0.092    c0.847,0.097,2.76,0.466,3.139,0.896c-2.294,0.493-4.452,1.322-6.52,2.394c2.151,0.031,4.28,0.092,6.379,1.059    c-2.264,0.141-4.316,0.625-6.262,1.724c1.921,0.169,3.687,0.647,5.351,1.491c-1.779-0.066-3.38,0.648-5.047,1.087    c1.621,0.242,3.283,0.287,4.738,1.167c-1.765,0.104-3.416,0.571-5.096,1.332c1.463,0.23,2.858,0.316,4.034,1.144    c-1.388-0.029-2.61,0.391-3.82,1.215c1.829,0.199,2.701,0.458,3.418,1.01c-1.571-0.078-2.955,0.41-4.27,1.175    c0.45,0.021,0.878,0.117,1.323,0.187c-1.23,0.26-2.496,0.416-3.446,1.379c1.184-0.167,2.356-0.256,3.622,0.053    c-1.134,0.336-2.164,0.66-3.048,1.335c0.985-0.138,1.941-0.068,2.884,0.188c-1.472,0.276-2.372,0.699-3.169,1.554    c1.027-0.187,1.975-0.093,2.908,0.175c-0.995,0.164-1.881,0.521-2.695,1.289c1.086-0.098,2.017,0.079,2.963,0.555    c-0.907,0.234-1.792,0.329-2.586,0.934c0.912,0.089,1.727,0.111,2.531,0.576c-0.913,0.287-1.784,0.439-2.519,1.154    c0.35,0,0.592-0.019,0.828,0.006c1.157,0.101,2.257,0.394,3.237,1.041c0.309,0.203,0.562,0.447,0.605,0.809l0.305-0.334    c0.654-0.721,1.333-1.469,2.06-2.148c0.925-0.865,1.887-1.521,2.939-2.011l1.78-0.678c0.387-0.134,0.77-0.265,1.151-0.392    c1.58-0.527,3.212-1.074,4.71-1.875c0.43-0.229,0.859-0.481,1.274-0.727c0.192-0.114,0.388-0.227,0.579-0.34    c0.629-0.415,15.326-10.396,9.313-28.348c-0.079-0.195-0.157-0.39-0.235-0.582c0-0.003,0-0.005,0-0.007    c-0.36-1.005-1.312-3.099-2.412-3.392c-0.159-0.033-0.312-0.068-0.576-0.004c1.504,0.802,2.217,2.124,2.761,3.58    c-0.595-0.342-1.198-0.591-2.014-0.584c1.169,0.982,2.17,1.964,2.641,3.443c-0.825-0.378-1.562-0.861-2.524-0.707    c1.152,0.716,1.943,1.646,2.287,3.023c-0.797-0.452-1.516-0.858-2.492-0.763c0.605,0.376,1.07,0.787,1.451,1.288    c0.369,0.493,0.754,0.981,0.844,1.621c0.001,0.002,0.004,0.002,0.006,0.004c0.01,0.005,0.02,0.01,0.029,0.016    c-0.012-0.005-0.024-0.008-0.035-0.014c-0.002-0.001-0.002-0.004-0.002-0.006c-0.817-0.432-1.68-0.658-2.625-0.578    c0.973,0.757,1.51,1.783,2.021,2.977c-0.973-0.476-1.878-0.866-3.016-0.693c0.512,0.376,0.953,0.671,1.324,1.057    c0.32,0.333,0.629,0.669,0.822,1.096c0.036,0.079,0.131,0.169,0.049,0.255c-0.076,0.08-0.178,0.018-0.267-0.01    c-0.714-0.227-1.438-0.343-2.188-0.209c-0.129,0.023-0.264,0.012-0.389,0.145c1.096,0.499,1.613,1.464,2.129,2.589    c-1.029-0.427-1.955-0.845-3.076-0.862c0.668,0.814,1.318,1.548,1.803,2.529c-0.938-0.287-1.797-0.479-2.746-0.509    c0.578,0.902,1.059,1.798,1.592,2.818c-0.973-0.444-1.802-0.999-2.857-0.847c0.467,0.802,0.891,1.601,1.278,2.515    c-0.911-0.428-1.807-0.469-2.771-0.51c0.514,0.815,1.033,1.565,1.352,2.555c-0.479-0.279-0.852-0.511-1.262-0.664    c-0.421-0.158-0.859-0.232-1.375-0.155c0.544,0.613,1.029,1.231,1.303,2.057c-0.785-0.279-1.537-0.484-2.357-0.618    c0.485,0.765,0.853,1.534,1.1,2.388c-0.661-0.694-1.489-0.841-2.451-0.85c0.549,0.718,0.866,1.453,0.941,2.386    c-0.67-0.611-1.405-0.873-2.234-1c0.251,0.712,0.639,1.354,0.68,2.104c0.012,0.012,0.024,0.025,0.037,0.035    c-0.009,0-0.021,0.002-0.025-0.004c-0.008-0.006-0.01-0.02-0.014-0.029c-0.646-0.342-1.309-0.628-2.068-0.578    c-0.236,0.016-0.33,0.032-0.164,0.287c0.359,0.555,0.439,1.195,0.537,1.906c-0.586-0.575-1.254-0.771-2.049-0.879    c0.305,0.684,0.438,1.354,0.469,2.047c-0.164,0.032-0.223-0.097-0.307-0.173c-0.546-0.481-1.181-0.735-1.914-0.745    c-0.116-0.002-0.245,0.043-0.342-0.067c3.463-2.669,6.393-5.85,8.995-9.344c2.524-3.393,4.712-6.982,6.218-10.955    c1.082-2.86,1.451-5.836,1.318-8.87c-0.107-2.45-0.828-4.708-2.093-6.774c-1.566-1.734-3.25-3.177-5.05-4.317    c-0.127-0.052-1.225-0.755-3.23-0.32c-0.043,0.006-0.389,0.111-0.502,0.187c2.309-0.013,4.09,1.059,5.787,2.35    c-1.383-0.548-2.805-0.49-4.238-0.293c1.161,0.082,2.266,0.341,3.258,0.976c0.617,0.392,1.186,0.836,1.695,1.371    c-0.732-0.184-1.455-0.372-2.202-0.435c-0.743-0.064-1.465,0.037-2.161,0.325c0.902,0.155,1.793,0.319,2.652,0.625    c0.838,0.3,1.593,0.727,2.175,1.42c0.022,0.035,0.099,0.058,0.052,0.104c-0.035,0.036-0.091,0.009-0.121-0.035    c-1.526-0.564-3.078-0.557-4.748-0.255c1.814,0.624,3.771,0.721,5.017,2.43c-0.853-0.174-1.651-0.334-2.474-0.334    c-0.814,0.002-1.611,0.115-2.508,0.286c1.969,0.26,3.645,0.894,4.959,2.497c-1.781-0.332-3.459-0.731-5.16-0.116    c1.775,0.385,3.479,0.898,4.72,2.495c-1.7-0.558-3.322-0.607-4.956,0.09c1.615,0.378,3.084,0.96,4.166,2.272    c-1.637-0.391-3.23-0.279-4.896,0.305c1.635,0.441,3.111,0.969,4.045,2.492c-1.625-0.46-3.192-0.429-4.879,0.041    c1.607,0.528,2.926,1.292,3.859,2.712c-1.707-0.385-3.35-0.682-5.041-0.248c1.504,0.58,2.76,1.451,3.618,2.939    C51.7,30.86,50.2,30.78,48.682,30.773c1.245,0.75,2.532,1.437,3.414,2.665c-1.418-0.439-2.853-0.546-4.353-0.345    c1.241,0.572,2.269,1.325,2.901,2.557c-1.332-0.449-2.658-0.471-4.067-0.114c1.131,0.624,2.108,1.337,2.81,2.372    c0.027,0.032,0.043,0.067,0,0.097c-0.006,0.003-0.035-0.03-0.053-0.046c-0.729-0.264-1.467-0.49-2.244-0.559    c-0.455-0.039-0.905-0.06-1.365,0.061c0.989,0.381,1.662,1.103,2.205,1.963c0.09,0.141,0.243,0.263,0.203,0.465    c0.02,0.005,0.038,0.01,0.055,0.017c-0.002,0.011-0.006,0.024-0.012,0.034c-0.016-0.016-0.031-0.032-0.049-0.048    c-1.074-0.397-2.201-0.53-3.351-0.617c0.972,0.55,1.627,1.376,2.205,2.46c-1.161-0.497-2.274-0.508-3.47-0.424    c0.858,0.601,1.536,1.286,2.021,2.15h0.001c0,0,0,0.001,0.002,0.002c0.014,0.014,0.032,0.026,0.047,0.038    c-0.01,0.005-0.022,0.009-0.033,0.015c-0.004-0.018-0.01-0.035-0.014-0.053c-0.002-0.001-0.002-0.001-0.003-0.001v-0.001    c-0.968-0.179-1.939-0.209-2.997-0.041c0.865,0.458,1.561,1.033,2.054,1.899c-1.208-0.301-2.396-0.099-3.552,0.028    c0,0,0.284-0.708,0.442-1.044c1.813-3.813,3.576-7.651,5.257-11.528c1.391-3.201,2.766-6.412,3.855-9.737    c0.554-1.697,0.843-3.45,1.042-5.22c0.129-1.17,0.192-2.342,0.143-3.514c-0.135-3.173-0.844-6.167-2.838-8.735    c-0.25-0.324-0.523-0.626-0.789-0.938l-0.183-0.205c0,0-2.852,0.258-3.272,0.811C46.577,5.317,47.611,5.546,47.98,5.965z" fill="#45cdff"/>
		<path d="M52.213,50.924c1.006-1.152,2.002-2.312,3.003-3.47c-0.019,0.011-0.032,0.021-0.042,0.028    c-0.205,0.117-0.396,0.229-0.589,0.345c-0.418,0.243-0.851,0.501-1.287,0.731c-1.521,0.813-3.169,1.363-4.761,1.896    c-0.381,0.129-0.764,0.256-1.145,0.387l-0.706,0.27c-1.789,2.433-3.579,4.865-5.371,7.299c0.335,0.165,0.645,0.3,0.936,0.467    c0.302,0.174,0.597,0.368,0.878,0.576c0.358,0.265,0.353,0.273,0.501-0.167c0.292-0.859,0.781-1.134,1.565-0.825    c0.269,0.105,0.398,0.038,0.568-0.159C47.911,55.841,50.066,53.387,52.213,50.924z" fill="#45cdff"/>
		<path d="M44.495,63.583c0.008,0.022,0.017,0.044,0.023,0.065c0.879-0.248,1.762-0.489,2.636-0.748    c0.145-0.045,0.322-0.131,0.33-0.319c0.004-0.177-0.603-0.517-0.789-0.522c-0.363-0.014-0.373,0.361-0.608,0.498    C45.542,62.871,45.025,63.236,44.495,63.583z" fill="#45cdff"/>
		<path d="M33.354,59.207c-0.2-0.042-0.279,0.023-0.229,0.23c0.117,0.471,0.23,0.939,0.344,1.412    c0.043,0.186,0.043,0.147,0.043,0.147s2.17,0.161,2.59,0.29c0,0,1.686-0.508,2.618-0.762c0.566-0.151,0.846-0.508,1.149-0.992    c-0.911-0.055-1.758-0.098-2.608-0.098C35.956,59.441,34.645,59.477,33.354,59.207z" fill="#45cdff"/>
		<path d="M24.577,76.216c-0.428,0.468-0.814,0.981-1.305,1.388c-0.215,0.172-0.165,0.271,0.012,0.428    c1.287,1.135,2.615,2.215,4.04,3.177c2.974,2.011,6.185,3.528,9.622,4.565c2.605,0.785,5.269,1.267,7.981,1.396    c2.673,0.129,5.337,0.014,7.987-0.445c4.706-0.816,9.061-2.512,13.076-5.084c1.894-1.214,3.645-2.609,5.268-4.162    c1.141-1.092,2.133-2.154,3.081-3.42c-0.33-0.074-1.96-0.853-3.639-0.141c0.835,0.01,1.639,0.16,2.433,0.409    c-1.165,0.212-2.357,0.237-3.5,0.585c0.812,0.015,1.609,0.117,2.396,0.352c-1.122,0.271-2.25,0.488-3.399,1.038    c0.565,0.058,1.017-0.137,1.46-0.054c-2.417,1.771-8.923,1.189-11.283,0.407c-0.854-0.279-1.677-0.589-2.474-0.986    c-0.533-0.265-1.082-0.54-1.64-0.772c-1.129-0.472-1.981-0.727-3.411-0.9c-1.431-0.171-3.207,0.171-4.689,0.943    c-0.154,0.082-0.314,0.153-0.425,0.301c0.012,0.013,0.024,0.025,0.035,0.04c0.816-0.224,1.621-0.496,2.466-0.613    c0.629-0.086,1.254-0.165,1.897-0.094c-1.502,0.188-2.814,0.847-4.061,1.657l0.016,0.019c0.769-0.131,1.513-0.377,2.294-0.448    c0.338-0.031,0.67-0.044,1.125-0.048c-1.291,0.349-2.338,0.917-3.277,1.688c0.011,0.012,0.021,0.024,0.034,0.037    c0.878-0.188,1.746-0.451,2.66-0.437c0.078,0.002,0.156,0,0.238,0.021c-1.056,0.4-1.959,1.068-2.917,1.625    c-0.983,0.57-1.978,0.696-3.062,0.355c-0.456-0.145-4.093-1.04-5.561-1.825c-0.038-0.018-0.553-0.251-1.324-0.604    c-1.785-0.813-4.943-2.261-6.683-3.043c-1.189-0.501-5.784-1.31-7.404,0.704c0.013,0.013,0.025,0.023,0.036,0.035    c0.517-0.146,1.032-0.299,1.552-0.438c0.312-0.083,0.625-0.169,0.944-0.207c0.315-0.038,0.629-0.173,0.999-0.064    c-1.033,0.396-2.111,0.597-2.966,1.295c0.756-0.17,1.497-0.377,2.352-0.356c-0.639,0.356-1.274,0.579-1.688,1.126l0.013,0.014    c0.485-0.065,0.942-0.363,1.507-0.201C25.057,75.705,24.813,75.957,24.577,76.216z" fill="#45cdff"/>
		<path d="M11.89,51.191c-0.073,2.205,0.098,4.396,0.453,6.576c0.969,5.961,3.338,11.306,7.055,16.059    c0.215,0.277,0.313,0.4,0.444,0.4c0.106,0,0.236-0.082,0.469-0.231c0.125-0.077,0.252-0.153,0.384-0.226    c1.835-0.955,3.683-1.263,5.276-1.263c1.942,0,3.506,0.457,4.21,0.752c1.744,0.788,4.903,2.23,6.688,3.046    c0.75,0.342,1.349,0.6,1.38,0.6c0.001,0,0.001-0.002,0.001-0.002c0.082,0.004,0.163,0.006,0.243,0.006    c1.52,0,2.912-0.521,4.265-1.15c1.433-0.665,2.858-1.333,4.416-1.67c0.696-0.15,1.859-0.361,3.237-0.361    c1.34,0,2.884,0.199,4.403,0.854c0.576,0.24,1.131,0.518,1.668,0.787c0.785,0.391,1.596,0.796,2.442,1.074    c0.296,0.129,1.164,0.336,2.412,0.5c1.118-0.039,2.151-0.422,3.151-1.01c1.13-0.66,2.302-1.244,3.46-1.854    c0.878-0.459,1.803-0.813,2.8-0.872c0.165-0.01,0.329-0.016,0.493-0.016c0.635,0,1.266,0.076,1.882,0.244    c0,0,1.01,0.271,1.389,0.422c0.006-0.006,0.012-0.014,0.016-0.02c0.09-0.1,0.187-0.193,0.27-0.303    c2.38-3.094,4.201-6.486,5.451-10.184c0.531-1.568,0.973-3.166,1.227-4.807c0,0-18.817,0.003-28.228,0.003    c-0.093,0-0.185-0.013-0.337-0.022c0.727-1.881,1.574-3.609,3.637-4.308c0.365-0.123,0.727-0.177,1.083-0.177    c0.661,0,1.31,0.184,1.946,0.449c0.111,0.048,0.229,0.093,0.331,0.154c0.081,0.047,0.143,0.069,0.192,0.069    c0.106,0,0.156-0.104,0.207-0.276c0.726-2.435,2.312-4.021,4.774-4.65c0.414-0.105,0.819-0.156,1.214-0.156    c1.195,0,2.311,0.45,3.359,1.131c0.134,0.086,0.228,0.137,0.303,0.137c0.102,0,0.168-0.092,0.249-0.315    c0.894-2.509,2.491-4.346,5.11-5.123c0.72-0.213,1.436-0.306,2.147-0.306c1.151,0,2.293,0.241,3.425,0.602    c0.172,0.055,0.334,0.146,0.518,0.146c0.019,0,0.037-0.001,0.057-0.003c0,0,0.002,0.006,0.008,0.016    c0.002-0.006,0-0.012,0.002-0.018c-0.002-0.119,0.012-0.242-0.01-0.357c-0.314-1.587-0.712-3.15-1.236-4.683    c-1.608-4.713-4.104-8.902-7.485-12.556c-2.116-2.289-4.487-4.273-7.144-5.907c2.409,12.217-4.691,20.238-8.377,23.48    c0.002,0.003,0.004,0.005,0.01,0.007c-0.01,0.002-0.02,0.005-0.026,0.006c-0.022,0.02-0.044,0.038-0.065,0.058    c-0.005,0.015-0.016,0.025-0.033,0.029c-0.013,0.011-0.026,0.022-0.039,0.033c0.006,0.126-0.106,0.188-0.174,0.266    c-2.018,2.313-4.037,4.622-6.054,6.931c-1.592,1.821-3.185,3.646-4.773,5.467c-0.112,0.128-0.272,0.237-0.193,0.452    c0.134,0.354,0.052,0.689-0.109,1.013c-0.057,0.112-0.13,0.224,0.026,0.31c0.44,0.244,0.768,0.68,1.327,0.726    c0.215,0.019,0.415,0.174,0.518,0.362c0.239,0.437,0.615,0.643,1.074,0.758c0.182,0.046,0.4,0.105,0.445,0.305    c0.051,0.206,0.188,0.283,0.33,0.383c1.144,0.795,2.277,1.601,3.432,2.379c0.311,0.209,0.316,0.433,0.18,0.72    c-0.089,0.185-0.205,0.349-0.361,0.483c-0.195,0.168-0.328,0.252-0.457,0.252c-0.135,0-0.266-0.093-0.463-0.274    c-1.057-0.984-2.127-1.958-3.182-2.947c-0.127-0.119-0.246-0.157-0.386-0.157c-0.06,0-0.125,0.008-0.194,0.019    c-0.361,0.054-0.543,0.354-0.826,0.491c-1.043,0.51-2.098,0.994-3.142,1.502c-0.085,0.041-0.16,0.061-0.23,0.061    c-0.105,0-0.202-0.044-0.314-0.13c-0.233-0.176-0.45-0.381-0.689-0.554l0.127,0.302L39.354,70.2l-0.012-0.011    c-0.265,0.302-0.676,0.379-1.067,0.439c-0.522,0.082-1.043,0.119-1.561,0.119c-1.175,0-2.339-0.189-3.494-0.477    c-1.171-0.289-2.311-0.656-3.315-1.354c-0.315-0.22-0.604-0.473-0.673-0.876c-0.301-1.81-0.566-3.622-0.912-5.422    c-0.104-0.535-0.132-0.668-0.132-0.668l1.293-0.613c0,0-0.04-0.124-0.147-0.427c-2.219-6.354-4.421-12.711-6.641-19.063    c-0.4-1.144-0.695-2.331-1.27-3.409c-0.835-1.564-1.514-3.193-1.973-4.906c-0.212-0.785-0.366-1.586-0.558-2.421    c-0.071,0.079-0.117,0.125-0.154,0.177C14.403,37.217,12.133,43.859,11.89,51.191z M20.542,38.909    c0.375,0.704,0.624,1.479,0.887,2.298c0.104,0.325,0.209,0.65,0.321,0.972c1.162,3.323,2.318,6.647,3.475,9.973    c1.005,2.889,2.009,5.775,3.019,8.666l-0.483,0.229c-0.418,0.198-0.646,0.658-0.549,1.111c0.002,0.011,0.031,0.149,0.128,0.647    c0.236,1.229,0.439,2.494,0.635,3.719c0.09,0.56,0.18,1.119,0.274,1.685c0.133,0.774,0.65,1.224,1.088,1.528    c1.188,0.826,2.51,1.224,3.646,1.504c1.375,0.34,2.596,0.505,3.733,0.505c0.584,0,1.162-0.044,1.714-0.131    c0.382-0.06,0.992-0.153,1.488-0.591c0.097-0.066,0.183-0.148,0.252-0.246l3.135-4.394c0.179,0.078,0.361,0.115,0.552,0.115    c0.22,0,0.435-0.051,0.667-0.16c0.504-0.245,1.009-0.483,1.515-0.724c0.544-0.258,1.087-0.516,1.627-0.778    c0.212-0.104,0.372-0.233,0.49-0.33c0.531,0.495,1.064,0.987,1.598,1.479c0.461,0.425,0.922,0.851,1.381,1.277    c0.204,0.189,0.583,0.543,1.145,0.543c0.535,0,0.922-0.334,1.113-0.498c0.252-0.219,0.455-0.49,0.605-0.807    c0.369-0.771,0.173-1.513-0.521-1.98c-0.82-0.553-1.631-1.121-2.441-1.688l-0.971-0.678c-0.17-0.416-0.543-0.698-1.11-0.842    c-0.313-0.078-0.388-0.172-0.44-0.268c-0.271-0.496-0.772-0.833-1.312-0.88c-0.071-0.006-0.189-0.088-0.319-0.187    c0.063-0.265,0.078-0.523,0.043-0.776c1.556-1.782,3.112-3.565,4.671-5.349l0.217-0.248c1.945-2.227,3.892-4.453,5.824-6.667    c0.057-0.053,0.17-0.159,0.268-0.321c0.035-0.032,0.068-0.066,0.099-0.104c3.304-2.941,10.19-10.557,8.931-22.041    c1.812,1.299,3.512,2.807,5.078,4.501c3.268,3.53,5.715,7.635,7.273,12.199c0.363,1.063,0.676,2.172,0.945,3.347    c-0.987-0.249-1.898-0.372-2.763-0.372c-0.837,0-1.655,0.117-2.431,0.347c-2.537,0.753-4.381,2.444-5.489,5.031    c-1.104-0.604-2.173-0.9-3.25-0.9c-0.487,0-0.981,0.062-1.462,0.188c-2.502,0.641-4.295,2.217-5.234,4.607    c-0.705-0.259-1.354-0.385-1.97-0.385c-0.479,0-0.952,0.077-1.403,0.229c-2.502,0.846-3.506,2.971-4.25,4.896    c-0.115,0.297-0.082,0.631,0.09,0.899c0.172,0.268,0.461,0.438,0.779,0.459l0.131,0.01c0.104,0.009,0.187,0.015,0.27,0.015    l27.027-0.003c-0.228,1.081-0.549,2.23-0.974,3.484c-1.174,3.474-2.896,6.723-5.12,9.664c-0.373-0.11-0.731-0.209-0.793-0.226    c-0.68-0.185-1.402-0.278-2.146-0.278c-0.185,0-0.368,0.006-0.552,0.018c-1.016,0.061-2.033,0.372-3.207,0.984l-0.848,0.441    c-0.873,0.454-1.775,0.923-2.652,1.436c-0.92,0.539-1.771,0.824-2.602,0.869c-1.209-0.164-1.906-0.35-2.057-0.414    c-0.029-0.013-0.059-0.023-0.088-0.033c-0.766-0.252-1.532-0.633-2.307-1.02c-0.524-0.262-1.119-0.56-1.722-0.811    c-1.442-0.621-3.058-0.938-4.799-0.938c-1.118,0-2.246,0.127-3.448,0.385c-1.642,0.355-3.124,1.043-4.557,1.709l-0.069,0.031    c-1.181,0.551-2.463,1.059-3.843,1.059c-0.017,0-0.034,0-0.05-0.002c-0.192-0.079-0.594-0.254-1.159-0.51    c-1.786-0.816-4.947-2.261-6.717-3.06c-0.956-0.401-2.666-0.83-4.597-0.83c-2.053,0-3.984,0.463-5.751,1.383    c-0.066,0.036-0.131,0.072-0.196,0.11c-3.525-4.575-5.776-9.752-6.694-15.395c-0.359-2.203-0.507-4.352-0.44-6.382    c0.213-6.452,2.073-12.402,5.525-17.707c0.023,0.092,0.047,0.183,0.072,0.273C18.944,35.501,19.617,37.175,20.542,38.909z" fill="#45cdff"/>
		<path d="M82.08,41.698c-2.033-6.761-5.725-12.46-11.018-17.12c-1.834-1.614-3.812-3.029-5.943-4.219    c0.102,0.367,0.195,0.732,0.279,1.093c3.009,1.793,5.695,3.983,8.041,6.587c5.848,6.492,8.941,14.122,9.311,22.845    c0.141,3.323-0.214,6.604-1.023,9.833c-1.834,7.311-5.58,13.471-11.264,18.407c-6.174,5.362-13.381,8.259-21.553,8.733    c-3.528,0.205-7.012-0.118-10.441-0.969c-7.574-1.88-13.893-5.812-18.904-11.781c-5.168-6.15-7.912-13.285-8.328-21.303    c-0.141-2.717,0.05-5.423,0.542-8.106c1.031-5.616,3.282-10.688,6.725-15.239c0.308-0.406,0.363-0.906,0.137-1.41    c-0.063,0.074-0.127,0.143-0.184,0.216c-5.041,6.355-7.709,13.589-8.023,21.689c-0.121,3.147,0.177,6.263,0.896,9.325    c1.922,8.201,6.142,15,12.682,20.308c6.288,5.099,13.523,7.772,21.609,8.12c3.172,0.135,6.312-0.152,9.408-0.863    c8.363-1.925,15.267-6.224,20.598-12.932c5.795-7.289,8.389-15.643,7.9-24.949C83.378,47.148,82.891,44.396,82.08,41.698z" fill="#45cdff"/>
		<path d="M81.501,45.967c0.015,0.029,0.034,0.07,0.06,0.122c-0.006-0.036-0.014-0.073-0.02-0.11    C81.525,45.977,81.514,45.974,81.501,45.967z" fill="#45cdff"/>
		<path d="M37.282,11.535c-1.194,0.198-2.29,0.427-3.355,0.773c-1.33,0.429-2.604,0.969-3.661,1.919    c0.021,0.023,0.039,0.044,0.059,0.068c0.796-0.249,1.58-0.543,2.412-0.661c1.221-0.172,2.326,0.198,3.398,0.721    c-2.416,0.329-4.73,0.889-6.622,2.558c0.952-0.208,1.913-0.329,2.884-0.325c0.965,0.004,1.938-0.021,2.952,0.443    c-0.184,0.043-0.249,0.057-0.312,0.07c-1.706,0.397-3.342,0.965-4.785,1.992c-0.436,0.308-0.888,0.606-1.192,1.066l0.016,0.018    c0.052-0.006,0.111,0,0.157-0.018c1.871-0.729,3.808-0.629,5.869-0.46c-1.292,0.365-2.447,0.767-3.558,1.283    c-0.942,0.437-1.881,0.885-2.659,1.599c0.016,0.018,0.032,0.035,0.05,0.052c0.066-0.011,0.134-0.017,0.199-0.036    c1.292-0.396,2.606-0.58,3.957-0.394c0.446,0.062,0.897,0.111,1.375,0.351c-1.081,0.306-2.078,0.633-3.039,1.052    c-0.957,0.417-1.888,0.877-2.625,1.655c1.937-0.633,3.886-0.657,5.962-0.247c-1.011,0.331-1.918,0.667-2.754,1.162    c-0.84,0.497-1.627,1.068-2.269,1.813c0.025,0.023,0.05,0.047,0.076,0.071c0.911-0.374,1.839-0.685,2.825-0.784    c0.699-0.071,1.396-0.087,2.202-0.013c-1.272,0.573-2.39,1.189-3.441,1.923c-0.563,0.393-1.127,0.789-1.561,1.332    c0.019,0.018,0.038,0.036,0.054,0.055c0.388-0.156,0.771-0.318,1.162-0.468c1.063-0.402,2.152-0.537,3.354-0.339    c-1.727,0.634-2.984,1.801-4.254,2.966c1.479-0.322,2.945-0.631,4.467-0.455c-1.404,0.818-2.85,1.552-3.951,2.791    c1.348-0.549,2.74-0.615,4.263-0.447c-0.219,0.113-0.345,0.181-0.474,0.243c-0.976,0.475-1.915,1.004-2.695,1.771    c-0.221,0.218-0.493,0.405-0.58,0.733c1.214-0.285,2.436-0.329,3.67-0.13c-0.248,0.151-0.503,0.262-0.757,0.378    c-0.86,0.395-1.679,0.85-2.298,1.589c0.009,0.012,0.019,0.026,0.029,0.039c1.079-0.357,2.176-0.434,3.296-0.244    c-1.093,0.522-2.047,1.194-2.785,2.166c0.988-0.416,2.018-0.516,3.183-0.545c-1.063,0.707-2.128,1.232-2.793,2.396    c1.064-0.283,2.036-0.265,3.099-0.108c-0.947,0.447-1.731,0.944-2.375,1.807c1.025-0.19,1.95-0.245,2.881-0.229    c0.282,0.006,0.2-0.203,0.183-0.347c-0.104-0.855-0.217-1.712-0.327-2.569c-0.376-2.934-0.59-5.883-0.686-8.838    c-0.075-2.323-0.072-4.646,0.04-6.974c0.14-2.969,0.448-5.916,1.078-8.822c0.572-2.65,1.397-5.212,2.826-7.542    c1.411-2.3,3.185-4.21,5.724-5.264c-1.151-0.111-4.877-0.159-7.858,0.877c-0.937,0.28-1.869,0.59-2.668,1.188    c0.012,0.017,0.026,0.03,0.041,0.046c1.218-0.297,2.436-0.601,3.702-0.605c0.793-0.001,1.588-0.036,2.462,0.125    c-3.75,0.57-6.659,1.917-7.883,2.991c1.737-0.629,3.421-0.937,5.064,0.11c-1.119,0.201-2.239,0.362-3.303,0.771    c-1.049,0.405-2.02,0.951-2.948,1.605C33.636,10.619,35.442,10.57,37.282,11.535z" fill="#45cdff"/>
		<polygon points="31.183,37.377 31.187,37.368 31.175,37.369   " fill="#45cdff"/>
		<path d="M21.627,26.516c0.568-0.223,1.097-0.517,1.682-0.676c0.572-0.153,1.145-0.283,1.743-0.249    c-0.371,0.292-0.761,0.533-1.126,0.802c-0.869,0.636-1.621,1.378-2.094,2.365l0.028,0.028c0.692-0.302,1.375-0.625,2.119-0.787    c0.449-0.099,0.898-0.173,1.417-0.091c-0.102,0.064-0.146,0.093-0.192,0.123c-1.23,0.815-2.267,1.82-3.046,3.081    c0.012,0.011,0.021,0.021,0.032,0.031c0.107-0.053,0.221-0.099,0.324-0.16c0.579-0.352,1.183-0.645,1.851-0.789    c0.447-0.099,0.896-0.156,1.479-0.154c-1.316,0.942-2.442,1.893-3.14,3.262c1.021-0.815,2.183-1.194,3.524-1.261    c-0.966,1.099-2.042,2.056-2.563,3.437c1.004-0.623,2.056-1.078,3.272-1.137c-0.473,0.548-1.018,1.013-1.497,1.536    c-0.438,0.478-0.941,0.921-1.151,1.57c0.996-0.567,2.035-0.947,3.307-0.748c-0.877,0.838-1.63,1.676-2.051,2.752    c0.803-0.475,1.613-0.901,2.517-1.153c-0.731,0.917-1.278,1.903-1.437,3.146c0.763-0.617,1.513-1.109,2.545-1.237    c-0.769,0.783-1.042,1.676-1.146,2.753c0.58-0.57,1.224-0.825,2.004-1.064c-0.523,0.913-0.814,1.786-0.961,2.809    c0.537-0.586,1.201-0.736,1.896-1.007c-0.332,0.831-0.611,1.588-0.663,2.486c0.519-0.38,0.972-0.701,1.494-0.888    c0.284-0.102,0.253-0.223,0.112-0.438c-1.134-1.736-2.063-3.579-2.874-5.482c-2.025-4.761-3.156-9.737-3.422-14.897    c-0.099-1.898-0.091-3.805,0.119-5.706c0.255-2.295,0.75-4.515,1.703-6.629c0.964-2.135,2.329-3.923,4.167-5.305    c-0.844,0.434-1.574,0.871-2.17,1.283c0.168-0.04,0.342-0.062,0.524-0.036c-0.659,0.413-1.32,0.823-2.023,1.259    c0.193,0.057,0.663-0.021,0.774,0.089c-0.849,0.485-1.651,1.02-2.339,1.834c0.476-0.082,0.843-0.347,1.336-0.218    c-0.874,0.726-1.858,1.263-2.521,2.229c0.474-0.057,0.895-0.293,1.373-0.042c-0.992,0.69-2.007,1.31-2.739,2.429    c0.739-0.247,1.37-0.515,2.168-0.271c-1.254,0.494-2.254,1.17-3.106,2.212c0.927-0.295,1.714-0.801,2.655-0.589    c-0.493,0.284-1.004,0.524-1.457,0.859c-0.647,0.482-1.277,0.985-1.659,1.726l0.005,0.004c0.38-0.125,0.765-0.248,1.146-0.375    c0.535-0.177,1.086-0.217,1.649-0.217c-0.404,0.321-0.812,0.611-1.23,0.896c-0.415,0.279-0.788,0.609-1.17,0.932    c-0.663,0.56-0.908,0.809-1.009,1.107c0.525-0.212,1.014-0.47,1.553-0.592c0.531-0.12,1.06-0.243,1.729-0.169    c-0.682,0.468-1.269,0.868-1.79,1.35c-0.528,0.493-1.1,0.95-1.463,1.598l0.021,0.021c1.052-0.385,2.084-0.838,3.252-0.78    C23.69,24.143,22.528,25.18,21.627,26.516z" fill="#45cdff"/>
		<polygon points="24.285,37.457 24.288,37.447 24.279,37.451   " fill="#45cdff"/>
	</g>
</g>
<g>
</g>
<g>
</g>
<g>
</g>
<g>
</g>
<g>
</g>
<g>
</g>
<g>
</g>
<g>
</g>
<g>
</g>
<g>
</g>
<g>
</g>
<g>
</g>
<g>
</g>
<g>
</g>
<g>
</g>
</svg>
